<svg width="1087" height="240" viewBox="0 0 1087 240" fill="none" xmlns="http://www.w3.org/2000/svg">
<path d="M79.9883 122.93C86.8589 130.553 94.6472 137.283 103.177 142.965C110.494 147.871 118.306 152.012 126.483 155.295C141.33 141.236 153.624 124.706 162.812 106.436L216.459 0L122.918 73.7179C105.682 87.3062 91.1295 104 79.9883 122.93Z" fill="url(#paint0_linear_5885_346)"/>
<path d="M71.9375 189.434C65.161 184.928 58.761 180.175 52.7139 175.293L19.9844 239.999L78.8081 193.881C76.5022 192.411 74.1963 190.952 71.9257 189.422L71.9375 189.434Z" fill="url(#paint1_linear_5885_346)"/>
<path d="M192.017 86.1407C209.617 109.482 214.758 135.423 202.829 153.27C185.394 179.341 138.146 178.329 97.2875 151.035C56.4285 123.741 37.4284 80.4701 54.852 54.3994C66.7932 36.5523 92.7227 31.3993 121.029 38.6934C72.0756 17.9169 25.4872 19.9757 7.42832 46.9405C-15.2424 80.8818 15.7225 141.423 76.5815 182.035C137.441 222.647 205.194 228.153 227.864 194.235C245.912 167.212 229.947 123.411 192.017 86.1407Z" fill="#FF8338"/>
<path d="M240.31 70V11H256.731V70H240.31ZM219 48.7307V32.3101H278V48.7307H219Z" fill="#FF8338"/>
<path d="M329.653 99.5455L345.989 127.806H346.688L363.199 99.5455H387.397L360.403 144.273L388.271 189H363.461L346.688 160.434H345.989L329.217 189H304.582L332.318 144.273L305.281 99.5455H329.653ZM398.579 189V99.5455H420.2V171.441H457.414V189H398.579ZM468.607 189V99.5455H490.228V171.441H527.443V189H468.607ZM559.186 189H535.949L566.131 99.5455H594.916L625.098 189H601.861L580.851 122.084H580.152L559.186 189ZM556.085 153.795H604.656V170.218H556.085V153.795ZM634.729 99.5455H661.504L684.218 154.93H685.266L707.979 99.5455H734.754V189H713.701V134.052H712.958L691.468 188.432H678.015L656.525 133.746H655.782V189H634.729V99.5455ZM767.59 189H744.353L774.535 99.5455H803.319L833.501 189H810.264L789.255 122.084H788.556L767.59 189ZM764.489 153.795H813.06V170.218H764.489V153.795ZM920.128 131.955H898.288C897.997 129.713 897.4 127.689 896.497 125.884C895.595 124.078 894.401 122.535 892.916 121.254C891.431 119.973 889.669 118.997 887.631 118.327C885.621 117.629 883.394 117.279 880.948 117.279C876.609 117.279 872.867 118.342 869.722 120.468C866.606 122.593 864.204 125.665 862.515 129.684C860.855 133.702 860.025 138.565 860.025 144.273C860.025 150.213 860.87 155.192 862.559 159.211C864.277 163.2 866.679 166.214 869.766 168.252C872.882 170.262 876.565 171.266 880.817 171.266C883.204 171.266 885.374 170.961 887.325 170.349C889.305 169.738 891.037 168.849 892.523 167.685C894.037 166.491 895.274 165.049 896.235 163.36C897.225 161.642 897.91 159.706 898.288 157.551L920.128 157.682C919.749 161.642 918.599 165.544 916.677 169.388C914.784 173.232 912.178 176.741 908.858 179.915C905.539 183.06 901.491 185.564 896.716 187.428C891.969 189.291 886.524 190.223 880.38 190.223C872.285 190.223 865.034 188.447 858.628 184.894C852.251 181.312 847.213 176.1 843.515 169.257C839.817 162.414 837.968 154.086 837.968 144.273C837.968 134.43 839.846 126.088 843.602 119.245C847.358 112.402 852.44 107.204 858.846 103.651C865.252 100.099 872.43 98.3224 880.38 98.3224C885.796 98.3224 890.805 99.0795 895.405 100.594C900.006 102.079 904.054 104.263 907.548 107.146C911.042 109.999 913.882 113.508 916.066 117.672C918.249 121.836 919.604 126.597 920.128 131.955ZM932.5 189V99.5455H969.452C976.15 99.5455 981.93 100.856 986.793 103.477C991.685 106.068 995.456 109.694 998.106 114.353C1000.76 118.983 1002.08 124.37 1002.08 130.514C1002.08 136.687 1000.73 142.089 998.018 146.719C995.339 151.32 991.51 154.887 986.531 157.42C981.551 159.953 975.64 161.22 968.797 161.22H945.997V144.185H964.778C968.04 144.185 970.763 143.618 972.946 142.482C975.16 141.346 976.834 139.759 977.97 137.721C979.105 135.653 979.673 133.251 979.673 130.514C979.673 127.748 979.105 125.36 977.97 123.35C976.834 121.312 975.16 119.74 972.946 118.633C970.733 117.527 968.011 116.973 964.778 116.973H954.121V189H932.5ZM1012.74 189V99.5455H1049.69C1056.39 99.5455 1062.17 100.856 1067.03 103.477C1071.92 106.068 1075.69 109.694 1078.34 114.353C1080.99 118.983 1082.32 124.37 1082.32 130.514C1082.32 136.687 1080.96 142.089 1078.26 146.719C1075.58 151.32 1071.75 154.887 1066.77 157.42C1061.79 159.953 1055.88 161.22 1049.04 161.22H1026.23V144.185H1045.02C1048.28 144.185 1051 143.618 1053.18 142.482C1055.4 141.346 1057.07 139.759 1058.21 137.721C1059.34 135.653 1059.91 133.251 1059.91 130.514C1059.91 127.748 1059.34 125.36 1058.21 123.35C1057.07 121.312 1055.4 119.74 1053.18 118.633C1050.97 117.527 1048.25 116.973 1045.02 116.973H1034.36V189H1012.74Z" fill="white"/>
<defs>
<linearGradient id="paint0_linear_5885_346" x1="75.89" y1="32.9823" x2="211.18" y2="97.4911" gradientUnits="userSpaceOnUse">
<stop stop-color="#6A0CF5"/>
<stop offset="1" stop-color="#AB66F3"/>
</linearGradient>
<linearGradient id="paint1_linear_5885_346" x1="18.2179" y1="189.036" x2="75.7844" y2="217.431" gradientUnits="userSpaceOnUse">
<stop stop-color="#6A0CF5"/>
<stop offset="1" stop-color="#AB66F3"/>
</linearGradient>
</defs>
</svg>
